<svg width="188" height="95" viewBox="0 0 188 95" fill="none" xmlns="http://www.w3.org/2000/svg">
<path fill-rule="evenodd" clip-rule="evenodd" d="M35.688 28.7427L37.2992 27.2924L36.1719 27.1313C33.1906 26.8893 30.2101 27.1313 27.3098 27.7755C22.3143 28.9839 17.8027 31.5632 14.0963 35.108C9.98693 39.2178 7.24761 44.2939 5.87835 49.9349C4.18621 57.0254 4.66934 64.5189 6.36226 71.5293L6.44239 71.8514L6.28135 72.1743C4.91208 74.591 3.38099 76.8474 1.68806 79.1847C-1.77635 84.0997 0.882839 87.9675 2.65511 94.0909L2.81615 94.4939L17.3188 94.0909L17.1577 93.4466L17.0768 93.1245C16.9158 92.4795 16.4318 91.9154 15.9487 91.4322L14.2566 89.0949L14.7397 88.53C16.1899 86.5965 17.721 84.6622 19.3322 82.8089C24.0048 77.0076 29.2423 72.9788 31.9816 64.9212C31.8206 66.8547 30.6116 70.1583 29.8056 71.4476L29.4835 72.0117L30.1284 72.2537C36.7344 75.0742 45.6774 76.2023 52.6872 74.3482C51.6392 70.2385 53.3313 66.2913 55.1845 63.148C53.9763 66.7745 53.0902 69.9163 53.8962 73.704C57.3606 85.0653 61.1463 89.2552 65.0946 93.3649C67.5928 95.9426 71.8624 93.687 78.7103 93.6061C80.4024 90.1406 77.4212 90.2223 75.8099 89.0132L75.4069 88.7712C73.9568 86.8377 67.592 77.6511 72.9096 74.9123C77.2601 72.6559 78.3882 70.6407 80.9665 67.418C79.9994 69.5934 79.1942 70.9636 77.4212 72.7361C82.4167 76.4428 87.2503 79.6655 90.5537 80.7937C89.9897 83.5333 90.1515 85.6278 90.8758 87.2392C93.293 88.7704 95.4683 87.9643 97.5635 84.8225C99.1747 81.196 99.9807 79.3434 99.9807 79.3434C100.786 77.087 100.062 75.0726 97.8855 73.3001C96.2743 71.688 90.8758 66.934 92.8099 64.5166L90.2316 66.6119C102.478 46.3059 97.6436 25.3557 83.544 9.32136C81.6908 7.30695 79.7575 5.4536 77.6631 3.7613L77.4212 3.60025L77.341 3.19721C77.2601 2.39113 77.019 0.457637 76.1328 0.0538116C75.4077 -0.268306 74.2796 0.940813 73.8766 1.42399L73.6347 1.58505L73.3935 1.66597C70.7343 1.98809 68.0759 2.39113 65.4167 2.79338C63.8055 3.1155 62.1943 3.35748 60.583 3.84065C60.2609 3.92079 60.019 4.08264 59.7778 4.24291C59.3748 4.56581 58.9718 5.04899 58.6497 5.45203L58.4887 5.69401H58.1658C56.1516 6.09705 54.1381 6.41916 52.204 6.58022C50.7539 6.74128 49.3037 6.8222 47.8543 6.74128H47.7734C47.1292 6.58022 46.0812 6.41916 45.437 6.66115L45.115 6.74128L45.034 7.0634C45.034 7.54736 45.1951 8.11146 45.3561 8.51371V8.59463C45.9202 10.609 46.7254 12.4624 47.9344 14.1547C49.0617 15.7661 50.4318 17.0561 52.043 18.1034C54.1381 19.3125 56.1524 20.6018 57.9246 22.1322C61.228 24.8718 62.5973 27.0472 63.4033 31.157C62.6774 28.9815 60.0198 24.5504 57.7636 23.5024C50.5127 22.5352 40.6835 25.5977 35.688 28.7403V28.7427ZM32.3045 73.7857L30.9344 73.3025L31.5786 74.1887C32.6266 76.0421 34.3989 79.99 34.2378 82.0853V82.1654C34.0768 84.3409 33.6738 92.1574 36.0101 92.8016C38.9104 93.6878 44.228 93.4466 47.2093 93.2054C48.2573 89.5789 45.115 90.7071 44.067 89.6598C45.1951 87.7263 45.5172 86.6782 46.3224 84.5028C46.8864 82.8105 47.3696 81.038 47.7726 79.2656C47.8535 78.3786 47.8535 77.4924 47.9344 76.6871V76.4451C41.8917 76.2031 37.8633 75.7192 32.3037 73.7857H32.3045Z" fill="white"/>
<path d="M118.392 81.635C116.021 81.635 114.127 80.9195 112.71 79.4886C111.307 78.0577 110.606 76.1778 110.606 73.849V56.5095C110.606 54.1667 111.307 52.2868 112.71 50.8699C114.127 49.439 116.021 48.7235 118.392 48.7235C120.777 48.7235 122.671 49.439 124.073 50.8699C125.476 52.2868 126.178 54.1667 126.178 56.5095V58.1929H120.496V56.5095C120.496 55.8782 120.314 55.3731 119.949 54.9944C119.584 54.6016 119.065 54.4052 118.392 54.4052C117.718 54.4052 117.199 54.6016 116.835 54.9944C116.47 55.3731 116.287 55.8782 116.287 56.5095V73.849C116.287 74.4803 116.47 74.9924 116.835 75.3852C117.199 75.764 117.718 75.9533 118.392 75.9533C119.065 75.9533 119.584 75.764 119.949 75.3852C120.314 74.9924 120.496 74.4803 120.496 73.849V70.8609H117.845V65.1793H126.178V73.849C126.178 76.1778 125.476 78.0577 124.073 79.4886C122.671 80.9195 120.777 81.635 118.392 81.635Z" fill="white"/>
<path d="M129.013 80.9616L134.99 49.3969H141.134L146.984 80.9616H141.176L140.461 76.0375H135.579L134.821 80.9616H129.013ZM136.421 70.3559H139.619L137.683 57.0566H138.441L136.421 70.3559Z" fill="white"/>
<path d="M150.689 80.9616V49.3969H154.898L162.094 69.8508L160.579 69.8929V49.3969H165.84V80.9616H161.631L154.435 60.5077L155.95 60.4656V80.9616H150.689Z" fill="white"/>
<path d="M179.302 81.635C176.931 81.635 175.037 80.9195 173.62 79.4886C172.217 78.0577 171.516 76.1778 171.516 73.849V56.5095C171.516 54.1667 172.217 52.2868 173.62 50.8699C175.037 49.439 176.931 48.7235 179.302 48.7235C181.687 48.7235 183.581 49.439 184.983 50.8699C186.386 52.2868 187.088 54.1667 187.088 56.5095V58.1929H181.406V56.5095C181.406 55.8782 181.224 55.3731 180.859 54.9944C180.494 54.6016 179.975 54.4052 179.302 54.4052C178.628 54.4052 178.109 54.6016 177.745 54.9944C177.38 55.3731 177.198 55.8782 177.198 56.5095V73.849C177.198 74.4803 177.38 74.9924 177.745 75.3852C178.109 75.764 178.628 75.9533 179.302 75.9533C179.975 75.9533 180.494 75.764 180.859 75.3852C181.224 74.9924 181.406 74.4803 181.406 73.849V70.8609H178.755V65.1793H187.088V73.849C187.088 76.1778 186.386 78.0577 184.983 79.4886C183.581 80.9195 181.687 81.635 179.302 81.635Z" fill="white"/>
<path d="M115.892 13.8866V39.7697H122.416V45.4513H110.211V13.8866H115.892Z" fill="white"/>
<path d="M133.017 46.1247C130.646 46.1247 128.752 45.4093 127.335 43.9783C125.932 42.5474 125.231 40.6675 125.231 38.3388V20.9992C125.231 18.6564 125.932 16.7766 127.335 15.3597C128.752 13.9287 130.646 13.2133 133.017 13.2133C135.402 13.2133 137.296 13.9287 138.699 15.3597C140.101 16.7766 140.803 18.6564 140.803 20.9992V38.3388C140.803 40.6675 140.101 42.5474 138.699 43.9783C137.296 45.4093 135.402 46.1247 133.017 46.1247ZM133.017 40.4431C133.69 40.4431 134.209 40.2537 134.574 39.8749C134.939 39.4821 135.121 38.9701 135.121 38.3388V20.9992C135.121 20.3679 134.939 19.8629 134.574 19.4841C134.209 19.0913 133.69 18.8949 133.017 18.8949C132.344 18.8949 131.825 19.0913 131.46 19.4841C131.095 19.8629 130.913 20.3679 130.913 20.9992V38.3388C130.913 38.9701 131.095 39.4821 131.46 39.8749C131.825 40.2537 132.344 40.4431 133.017 40.4431Z" fill="white"/>
<path d="M143.894 45.4513V13.8866H156.941V19.5683H149.575V29.669H155.804V35.3506H149.575V45.4513H143.894Z" fill="white"/>
<path d="M164.846 45.4513V31.142L158.239 13.8866H164.047L168.508 27.228H166.908L171.243 13.8866H177.051L170.528 31.142V45.4513H164.846Z" fill="white"/>
</svg>
