<svg width="37" height="42" viewBox="0 0 37 42" fill="none" xmlns="http://www.w3.org/2000/svg">
<path d="M18.0279 21.0314L9.0957 15.7909V15.54L17.9421 20.8746C17.967 20.8926 17.9878 20.9156 18.0032 20.9422C18.0178 20.9698 18.0263 21.0002 18.0279 21.0314V21.0314Z" fill="url(#paint0_linear_113_14266)"/>
<path d="M0 10.9976V10.4645L17.9832 0L36.0489 10.4645V10.8937L18.0277 21.6223L0 10.9976Z" fill="#BFBFBF"/>
<path d="M18.0277 21.0314L0 10.4645V31.4794L18.0277 42V21.0314Z" fill="#898989"/>
<path d="M18.0273 42L35.966 31.4794V10.4645L18.0323 20.9835L18.0273 42Z" fill="#BABABA"/>
<path d="M28.0958 29.9163C28.6699 29.5532 30.1845 27.4405 30.4253 25.4284C30.5243 24.5949 31.6264 23.4676 31.793 22.2297C32.194 19.2587 30.6019 16.4626 27.3253 18.5357C24.4991 20.3249 23.0786 25.0323 23.666 27.3744C23.8474 28.1023 24.9264 28.1122 25.1162 28.7213C25.8041 30.933 27.0679 30.5666 27.7163 30.1556L28.0958 29.9163Z" fill="white"/>
<path d="M24.7235 23.9891L26.6043 24.9795C26.8386 25.1033 26.7825 25.5951 26.4888 25.9318C26.1688 26.2983 25.7398 26.6647 25.3059 26.663C23.8771 26.6531 24.7235 23.9891 24.7235 23.9891Z" fill="#171617"/>
<path d="M30.4512 20.3645L28.7156 23.6409C28.4978 24.0502 28.5836 24.4513 28.8806 24.41C29.2105 24.3638 29.6461 24.1839 30.0618 23.6425C31.4395 21.8649 30.4512 20.3645 30.4512 20.3645Z" fill="#171617"/>
<path d="M27.1835 26.4567L27.4327 25.8972C27.4888 25.7701 27.6141 25.7321 27.6257 25.8378L27.6785 26.3082C27.6796 26.3524 27.6677 26.3961 27.6442 26.4336C27.6207 26.4712 27.5868 26.501 27.5465 26.5194L27.2446 26.6102C27.172 26.6333 27.1406 26.5524 27.1835 26.4567Z" fill="#171617"/>
<path d="M25.6962 27.8415L25.9289 27.688C26.0939 27.5774 26.1895 27.759 26.0708 27.967L25.9058 28.2558C25.8546 28.3482 25.7639 28.3813 25.7408 28.3202L25.6121 28.0676C25.6014 28.0259 25.6037 27.9818 25.6187 27.9414C25.6338 27.901 25.6608 27.8661 25.6962 27.8415Z" fill="#171617"/>
<path d="M26.0155 28.2971L26.2201 28.0462C26.3669 27.8663 26.5385 27.9324 26.4824 28.1486L26.4049 28.449C26.3801 28.5447 26.2927 28.6239 26.2399 28.6025L26.0023 28.51C25.9413 28.4869 25.9495 28.378 26.0155 28.2971Z" fill="#171617"/>
<path d="M26.5367 28.4523L26.7017 28.1601C26.8156 27.9488 27.0235 27.9208 27.0218 28.1172V28.3879C27.0206 28.432 27.0061 28.4747 26.9802 28.5103C26.9543 28.546 26.9182 28.5729 26.8766 28.5876L26.5862 28.6256C26.5071 28.6355 26.4873 28.5447 26.5367 28.4523Z" fill="#171617"/>
<path d="M27.1414 28.3169L27.2668 28.0149C27.3576 27.797 27.5753 27.7194 27.5968 27.8961L27.6347 28.1403C27.6375 28.1845 27.6271 28.2285 27.6047 28.2667C27.5824 28.305 27.5492 28.3356 27.5093 28.3549L27.2041 28.4638C27.1381 28.4886 27.1018 28.4143 27.1414 28.3169Z" fill="#171617"/>
<path d="M29.7407 25.2799L29.5081 25.4218C29.3431 25.5242 29.2639 25.8113 29.3909 25.8642L29.5675 25.9368C29.6235 25.9599 29.711 25.8823 29.7324 25.7849L29.838 25.3855C29.8694 25.2881 29.8166 25.2337 29.7407 25.2799Z" fill="#171617"/>
<path d="M29.468 26.1118L29.2552 26.125C29.1686 26.1515 29.0953 26.2098 29.05 26.2882C29.0047 26.3666 28.9908 26.4592 29.011 26.5475L29.1051 26.7406C29.1348 26.8017 29.2238 26.7687 29.27 26.6762L29.4911 26.2933C29.5522 26.2009 29.5324 26.1068 29.468 26.1118Z" fill="#171617"/>
<path d="M28.9784 26.904L28.8135 26.8182C28.6897 26.7571 28.4835 26.9833 28.5033 27.1731L28.5247 27.4306C28.5247 27.5131 28.6089 27.518 28.6765 27.4421L28.957 27.1203C29.0197 27.046 29.0378 26.9338 28.9784 26.904Z" fill="#171617"/>
<path d="M28.3881 27.5279L28.2479 27.3942C28.1473 27.2968 27.9328 27.4949 27.9179 27.6979L27.8965 27.9785C27.8965 28.0676 27.9608 28.094 28.0318 28.028L28.332 27.754C28.403 27.688 28.4327 27.5642 28.3881 27.5279Z" fill="#171617"/>
<path d="M28.3366 25.7272L28.0611 25.4994C27.9984 25.4482 27.8763 25.5671 27.8714 25.6826L27.8516 26.1976C27.8516 26.2867 27.9209 26.3065 27.9918 26.2372L28.2871 25.95C28.3581 25.8823 28.3779 25.7651 28.3366 25.7272Z" fill="#171617"/>
<path d="M32.2132 28.5595L23.7644 36.1455L23.5664 35.406L32.0152 27.8201L32.2132 28.5595Z" fill="white"/>
<path d="M23.5254 33.5508L31.9165 31.4628L32.1326 30.4841L23.7415 32.5737L23.5254 33.5508Z" fill="white"/>
<path d="M23.8994 33.2669C23.8935 33.418 23.8524 33.5657 23.7793 33.6981C23.7063 33.8304 23.6033 33.9439 23.4787 34.0295C23.2394 34.178 23.0415 34.079 23.0332 33.8066C23.0391 33.6553 23.0802 33.5074 23.1532 33.3748C23.2263 33.2421 23.3292 33.1283 23.4539 33.0424C23.6931 32.8939 23.8928 32.9946 23.8994 33.2669Z" fill="white"/>
<path d="M24.0869 32.2518C24.0808 32.4031 24.0397 32.5509 23.9667 32.6836C23.8936 32.8162 23.7908 32.93 23.6662 33.016C23.4269 33.1646 23.229 33.0639 23.2207 32.7915C23.2266 32.6404 23.2677 32.4928 23.3407 32.3604C23.4138 32.228 23.5168 32.1145 23.6414 32.029C23.879 31.8804 24.0869 31.9794 24.0869 32.2518Z" fill="white"/>
<path d="M24.0277 35.8484C24.1745 35.9804 24.1399 36.3155 23.9501 36.5961C23.7604 36.8767 23.4898 36.9972 23.343 36.8651C23.1962 36.7331 23.2308 36.3997 23.4189 36.1174C23.607 35.8352 23.8809 35.7163 24.0277 35.8484Z" fill="white"/>
<path d="M23.7171 35.175C23.864 35.307 23.8293 35.6404 23.6412 35.9227C23.4532 36.2049 23.1793 36.3238 23.0325 36.1917C22.8856 36.0597 22.9203 35.7246 23.1083 35.444C23.2964 35.1634 23.5703 35.0429 23.7171 35.175Z" fill="white"/>
<path d="M31.6348 28.7378C31.6348 29.0184 31.8179 29.1372 32.0571 29.0018C32.1843 28.9202 32.2907 28.8099 32.3678 28.6798C32.4448 28.5497 32.4904 28.4034 32.5009 28.2525C32.5009 27.9736 32.3178 27.8547 32.0786 27.9884C31.9513 28.07 31.8448 28.1803 31.7678 28.3104C31.6907 28.4405 31.6451 28.5869 31.6348 28.7378V28.7378Z" fill="white"/>
<path d="M31.4434 27.9455C31.4434 28.2261 31.6265 28.345 31.8657 28.2113C31.9928 28.129 32.099 28.0184 32.1761 27.8881C32.2531 27.7577 32.2988 27.6113 32.3095 27.4603C32.3095 27.1813 32.1264 27.0625 31.8872 27.1962C31.7599 27.2778 31.6534 27.388 31.5763 27.5181C31.4993 27.6483 31.4537 27.7946 31.4434 27.9455V27.9455Z" fill="white"/>
<path d="M31.5115 31.4645C31.3663 31.7699 31.4009 32.0637 31.5907 32.1247C31.7804 32.1858 32.051 31.9811 32.1978 31.6758C32.3446 31.3704 32.3084 31.0766 32.1186 31.0156C31.9289 30.9545 31.6616 31.1592 31.5115 31.4645Z" fill="white"/>
<path d="M31.824 30.4246C31.6788 30.73 31.7134 31.0238 31.9032 31.0849C32.0929 31.1459 32.3635 30.9413 32.5103 30.6376C32.6572 30.3339 32.6209 30.0384 32.4311 29.9773C32.2414 29.9163 31.9708 30.1193 31.824 30.4246Z" fill="white"/>
<defs>
<linearGradient id="paint0_linear_113_14266" x1="18.1582" y1="20.9224" x2="9.18946" y2="15.7827" gradientUnits="userSpaceOnUse">
<stop offset="0.01" stop-color="#733F19"/>
<stop offset="1" stop-color="#723917"/>
</linearGradient>
</defs>
</svg>
