<svg width="27" height="29" viewBox="0 0 27 29" fill="none" xmlns="http://www.w3.org/2000/svg">
<path d="M23.3961 23.1657C20.3259 24.4688 16.6621 25.184 13.4643 25.184C10.2665 25.184 6.61109 24.4526 3.53179 23.1657C0.452478 21.8788 0 20.7894 0 20.7894V23.2621C0 25.2785 1.16518 26.0871 4.35777 27.4277C6.80529 28.4556 10.0451 29 13.4643 29C16.8834 29 20.1233 28.4556 22.5708 27.4277C25.7634 26.0871 26.9286 25.2785 26.9286 23.2621V20.7894C26.9286 20.7894 26.4664 21.8633 23.3961 23.1657ZM1.01565 9.14147C1.74259 9.77844 2.8165 10.4031 4.12279 10.9488C6.87261 12.0984 10.3662 12.7852 13.4675 12.7852C16.5688 12.7852 20.0624 12.0984 22.8123 10.9488C24.1153 10.4031 25.1892 9.77844 25.9162 9.14147C26.3084 8.79775 26.6185 8.48638 26.7881 8.30966C26.8805 8.21314 26.932 8.08465 26.9318 7.95105V6.25766C26.8774 4.39402 25.3323 2.73558 22.5812 1.58788C20.1207 0.563817 16.8847 0 13.4643 0C10.0438 0 6.80788 0.563817 4.35388 1.58788C1.60859 2.73299 0.0647321 4.38754 0.00323656 6.24665V7.95105C0.00291151 8.08456 0.0541633 8.21304 0.146295 8.30966C0.313304 8.48638 0.622723 8.79775 1.01565 9.14147Z" fill="black"/>
<path d="M23.3961 12.2933C20.5201 13.529 16.6621 14.3116 13.4643 14.3116C10.2665 14.3116 6.4169 13.5174 3.53243 12.2933C0.647969 11.0692 0 9.91696 0 9.91696V12.9827C0.00517857 13.4695 0.356027 14.0313 1.01565 14.6094C1.74324 15.2464 2.8165 15.8717 4.12279 16.4167C6.86938 17.567 10.363 18.2545 13.4643 18.2545C16.5656 18.2545 20.0592 17.5683 22.809 16.418C24.1121 15.873 25.186 15.2477 25.9129 14.6107C26.5764 14.0281 26.9279 13.4643 26.9286 12.9749V9.91696C26.9286 9.91696 26.2728 11.0575 23.3961 12.2933Z" fill="black"/>
<path d="M23.3961 17.7612C20.3259 19.0312 16.6621 19.7796 13.4643 19.7796C10.2665 19.7796 6.35217 18.951 3.53243 17.7612C0.712701 16.5714 0 15.3849 0 15.3849V18.3787C0 18.8675 0.352143 19.4326 1.01565 20.0139C1.74259 20.6508 2.81585 21.2762 4.12279 21.8212C6.87261 22.9715 10.3656 23.6577 13.4675 23.6577C16.5695 23.6577 20.0624 22.9715 22.8123 21.8212C24.1153 21.2755 25.1892 20.6508 25.9162 20.0139C26.5758 19.4358 26.9266 18.8739 26.9318 18.3872V15.3849C26.9318 15.3849 26.467 16.4912 23.3961 17.7612Z" fill="black"/>
</svg>
